<?xml version="1.0" ?><svg height="400px" version="1.1" viewBox="0 0 400 400" width="400px" xmlns="http://www.w3.org/2000/svg" xmlns:xlink="http://www.w3.org/1999/xlink"><title/><desc/><defs><path d="M146.048984,24 L9.59357642,24 C4.29315405,24 0,28.2988397 0,33.6017273 L0,168 L240,168 L240,9.59825953 C240,4.28830719 235.701906,0 230.399939,0 L180.002904,0 C164.32962,0 150.992173,10.0176915 146.048984,24 L146.048984,24 Z" id="path-1"/><filter filterUnits="objectBoundingBox" height="200%" id="filter-2" width="200%" x="-50%" y="-50%"><feOffset dx="0" dy="2" in="SourceAlpha" result="shadowOffsetOuter1"/><feGaussianBlur in="shadowOffsetOuter1" result="shadowBlurOuter1" stdDeviation="2.5"/><feColorMatrix in="shadowBlurOuter1" type="matrix" values="0 0 0 0 0   0 0 0 0 0   0 0 0 0 0  0 0 0 0.5 0"/></filter><rect height="24" id="path-3" width="17" x="112" y="168"/><filter filterUnits="objectBoundingBox" height="200%" id="filter-4" width="200%" x="-50%" y="-50%"><feOffset dx="0" dy="2" in="SourceAlpha" result="shadowOffsetOuter1"/><feGaussianBlur in="shadowOffsetOuter1" result="shadowBlurOuter1" stdDeviation="2.5"/><feColorMatrix in="shadowBlurOuter1" type="matrix" values="0 0 0 0 0   0 0 0 0 0   0 0 0 0 0  0 0 0 0.5 0"/></filter><rect height="17" id="path-5" rx="7.2" width="96" x="0" y="195"/><filter filterUnits="objectBoundingBox" height="200%" id="filter-6" width="200%" x="-50%" y="-50%"><feOffset dx="0" dy="2" in="SourceAlpha" result="shadowOffsetOuter1"/><feGaussianBlur in="shadowOffsetOuter1" result="shadowBlurOuter1" stdDeviation="2.5"/><feColorMatrix in="shadowBlurOuter1" type="matrix" values="0 0 0 0 0   0 0 0 0 0   0 0 0 0 0  0 0 0 0.5 0"/></filter><rect height="17" id="path-7" rx="7.2" width="96" x="144" y="195"/><filter filterUnits="objectBoundingBox" height="200%" id="filter-8" width="200%" x="-50%" y="-50%"><feOffset dx="0" dy="2" in="SourceAlpha" result="shadowOffsetOuter1"/><feGaussianBlur in="shadowOffsetOuter1" result="shadowBlurOuter1" stdDeviation="2.5"/><feColorMatrix in="shadowBlurOuter1" type="matrix" values="0 0 0 0 0   0 0 0 0 0   0 0 0 0 0  0 0 0 0.5 0"/></filter><rect height="34" id="path-9" rx="7.2" width="72" x="84" y="187"/><filter filterUnits="objectBoundingBox" height="200%" id="filter-10" width="200%" x="-50%" y="-50%"><feOffset dx="0" dy="2" in="SourceAlpha" result="shadowOffsetOuter1"/><feGaussianBlur in="shadowOffsetOuter1" result="shadowBlurOuter1" stdDeviation="2.5"/><feColorMatrix in="shadowBlurOuter1" type="matrix" values="0 0 0 0 0   0 0 0 0 0   0 0 0 0 0  0 0 0 0.5 0"/></filter></defs><g fill="none" fill-rule="evenodd" id="Page-1" stroke="none" stroke-width="1"><g id="folder"><path d="M200,400 C310.45695,400 400,310.45695 400,200 C400,89.54305 310.45695,0 200,0 C89.54305,0 0,89.54305 0,200 C0,310.45695 89.54305,400 200,400 Z" fill="#82A3A1" id="background"/><g id="Group-14" transform="translate(80.000000, 89.000000)"><g id="Combined-Shape"><use fill="black" fill-opacity="1" filter="url(#filter-2)" xlink:href="#path-1"/><use fill="#F2ECD2" fill-rule="evenodd" xlink:href="#path-1"/></g><g id="Rectangle-32"><use fill="black" fill-opacity="1" filter="url(#filter-4)" xlink:href="#path-3"/><use fill="#545E75" fill-rule="evenodd" xlink:href="#path-3"/></g><g id="Rectangle-33"><use fill="black" fill-opacity="1" filter="url(#filter-6)" xlink:href="#path-5"/><use fill="#F2ECD2" fill-rule="evenodd" xlink:href="#path-5"/></g><g id="Rectangle-35"><use fill="black" fill-opacity="1" filter="url(#filter-8)" xlink:href="#path-7"/><use fill="#F2ECD2" fill-rule="evenodd" xlink:href="#path-7"/></g><g id="Rectangle-34"><use fill="black" fill-opacity="1" filter="url(#filter-10)" xlink:href="#path-9"/><use fill="#545E75" fill-rule="evenodd" xlink:href="#path-9"/></g></g></g></g></svg>